#!OML:ASF H:\Terrain\Patient Classification 1\Walking\liu\liu.ASF
:FULLY-SPECIFIED
:DEGREES
49
root 8.594020 15.860900 -29.460501 6.667930 -10.173700 -3.184890
lowerback -3.387630 0.301175 0.055902
upperback -1.122890 0.359329 1.747305
thorax 0.718710 0.181604 1.800710
lowerneck -10.659650 -2.123670 -6.462350
upperneck 8.488050 -2.490155 7.194250
head 4.796755 -0.803565 3.266905
rclavicle 0.000000 0.000000
rhumerus -23.563200 9.889500 -47.351700
rradius 24.622749
rwrist -12.520400
rhand -15.234750 -14.394750
rfingers 3.562510
rthumb -1.885405 -29.367950
lclavicle 0.000000 0.000000
lhumerus -22.569851 -1.581930 45.031399
lradius 10.557750
lwrist -2.042425
lhand 2.023095 -8.207100
lfingers 3.562510
lthumb 14.729900 5.634750
rfemur 8.387650 2.176180 10.608600
rtibia 9.770350
rfoot 1.694555 0.124840
rtoes -7.578900
lfemur -19.808750 4.205305 -8.892700
ltibia 19.263800
lfoot -2.058800 3.362640
ltoes -1.021165
50
root 8.632260 15.880500 -29.307301 6.372820 -10.266500 -2.809990
lowerback -3.214685 0.302130 -0.039487
upperback -1.136390 0.372638 1.648775
thorax 0.608000 0.189376 1.750115
lowerneck -10.658100 -2.129620 -6.436300
upperneck 8.492500 -2.519870 7.246650
head 4.803940 -0.810150 3.277805
rclavicle 0.000000 0.000000
rhumerus -23.390551 9.571150 -47.315350
rradius 23.908300
rwrist -12.202450
rhand -15.055750 -13.887950
rfingers 3.562510
rthumb -1.712555 -28.864100
lclavicle 0.000000 0.000000
lhumerus -22.445650 -1.548455 44.842651
lradius 10.384900
lwrist -2.162325
lhand 2.183855 -8.005900
lfingers 3.562510
lthumb 14.883350 5.808750
rfemur 7.899150 1.827930 10.204600
rtibia 11.198550
rfoot 2.064365 0.174586
rtoes -7.799450
lfemur -19.354700 4.224785 -9.177500
ltibia 19.231501
lfoot -2.235795 3.319595
ltoes -1.080375
51
root 8.665140 15.898900 -29.165001 6.269750 -10.449700 -2.525180
lowerback -3.027160 0.346527 -0.144963
upperback -1.230795 0.444814 1.579365
thorax 0.401555 0.228390 1.738455
lowerneck -10.707550 -2.166990 -6.521700
upperneck 8.672700 -2.580800 7.345950
head 4.891160 -0.831745 3.329035
rclavicle 0.000000 0.000000
rhumerus -23.273251 9.155900 -47.215199
rradius 23.187300
rwrist -11.796400
rhand -14.597950 -13.233250
rfingers 3.562510
rthumb -1.270435 -28.215549
lclavicle 0.000000 0.000000
lhumerus -22.347450 -1.373060 44.594398
lradius 10.155350
lwrist -2.464035
lhand 2.320180 -8.074050
lfingers 3.562510
lthumb 15.013450 5.717150
rfemur 7.281350 1.527000 9.860550
rtibia 12.617550
rfoot 2.630105 0.030400
rtoes -7.458800
lfemur -19.005350 4.285575 -9.403000
ltibia 19.183950
lfoot -2.612055 3.284845
ltoes -0.978450
52
root 8.701530 15.927600 -29.015301 6.352920 -10.690500 -2.172150
lowerback -3.098475 0.421856 -0.232171
upperback -1.241245 0.550580 1.501040
thorax 0.423726 0.281377 1.714670
lowerneck -10.722100 -2.232285 -6.480850
upperneck 8.677050 -2.654605 7.218050
head 4.901445 -0.876250 3.262330
rclavicle 0.000000 -0.000000
rhumerus -23.149349 8.805300 -47.077950
rradius 22.726049
rwrist -11.612300
rhand -14.579950 -13.324150
rfingers 3.562510
rthumb -1.253065 -28.306650
lclavicle 0.000000 -0.000000
lhumerus -22.109699 -1.283070 44.422401
lradius 9.980350
lwrist -2.885885
lhand 2.123415 -8.316050
lfingers 3.562510
lthumb 14.825650 5.508850
rfemur 6.535100 1.253645 9.456700
rtibia 14.056000
rfoot 3.216055 -0.189687
rtoes -6.301300
lfemur -18.726851 4.290090 -9.662600
ltibia 19.120100
lfoot -2.999085 3.291185
ltoes -0.358314
53
root 8.735990 15.963800 -28.870600 6.491090 -10.938800 -1.909460
lowerback -3.206470 0.432514 -0.325738
upperback -1.214175 0.568765 1.483440
thorax 0.508920 0.289699 1.753170
lowerneck -10.856050 -2.247270 -6.435550
upperneck 8.664400 -2.642810 7.090300
head 4.913640 -0.876610 3.208290
rclavicle 0.000000 0.000000
rhumerus -22.803499 8.660300 -46.978149
rradius 22.162550
rwrist -11.500450
rhand -14.902500 -14.061150
rfingers 3.562510
rthumb -1.564550 -29.039551
lclavicle 0.000000 0.000000
lhumerus -21.893801 -1.218515 44.319901
lradius 9.945800
lwrist -3.128970
lhand 1.828850 -8.348500
lfingers 3.562510
lthumb 14.544450 5.525700
rfemur 5.717900 1.021230 9.139050
rtibia 15.502700
rfoot 3.672905 -0.402898
rtoes -5.866700
lfemur -18.482599 4.347530 -9.904600
ltibia 19.029150
lfoot -3.208285 3.290980
ltoes -0.360934
54
root 8.768380 15.997100 -28.733999 6.607820 -11.139800 -1.903280
lowerback -3.198605 0.386129 -0.316215
upperback -1.245735 0.506905 1.486060
thorax 0.476217 0.259270 1.745655
lowerneck -10.995100 -2.165695 -6.370950
upperneck 8.776450 -2.555770 7.138300
head 4.964600 -0.821645 3.234460
rclavicle -0.000000 -0.000000
rhumerus -22.341749 8.539500 -46.983650
rradius 21.297750
rwrist -11.209400
rhand -14.863450 -14.007600
rfingers 3.562510
rthumb -1.526840 -28.986549
lclavicle -0.000000 -0.000000
lhumerus -21.819700 -1.138675 44.151249
lradius 9.948000
lwrist -3.189030
lhand 1.660240 -8.391800
lfingers 3.562510
lthumb 14.383400 5.510000
rfemur 4.908085 0.825805 9.017200
rtibia 16.916800
rfoot 4.166830 -0.726485
rtoes -6.134450
lfemur -18.208549 4.419690 -10.003250
ltibia 18.917549
lfoot -3.482900 3.288745
ltoes -1.131425
55
root 8.800780 16.025900 -28.599701 6.489510 -11.342600 -1.700020
lowerback -3.054760 0.382143 -0.386190
upperback -1.296530 0.508755 1.434365
thorax 0.343574 0.262302 1.728305
lowerneck -10.939450 -2.116585 -6.236850
upperneck 8.793200 -2.534705 7.116500
head 4.952780 -0.806795 3.206325
rclavicle 0.000000 0.000000
rhumerus -22.121700 8.228000 -46.920849
rradius 20.597851
rwrist -10.803550
rhand -14.632150 -13.438850
rfingers 3.562510
rthumb -1.303470 -28.420750
lclavicle 0.000000 0.000000
lhumerus -21.754900 -1.098375 43.968750
lradius 9.875200
lwrist -3.388135
lhand 1.509635 -8.703700
lfingers 3.562510
lthumb 14.239500 5.222350
rfemur 4.226330 0.701130 8.838900
rtibia 18.293650
rfoot 4.669090 -1.216960
rtoes -5.575800
lfemur -17.802851 4.460985 -10.175850
ltibia 18.775801
lfoot -3.820960 3.297770
ltoes -1.556085
56
root 8.831670 16.053200 -28.466801 6.273960 -11.524900 -1.337560
lowerback -2.889960 0.410625 -0.547515
upperback -1.309025 0.557425 1.386860
thorax 0.233599 0.289079 1.769850
lowerneck -10.930500 -2.141355 -6.089600
upperneck 8.782300 -2.573510 6.927700
head 4.942735 -0.835290 3.102760
rclavicle -0.000000 0.000000
rhumerus -21.994900 7.850300 -46.703949
rradius 20.138149
rwrist -10.475600
rhand -14.448700 -13.227350
rfingers 3.562510
rthumb -1.126320 -28.211300
lclavicle -0.000000 0.000000
lhumerus -21.553450 -1.098300 43.874451
lradius 9.729400
lwrist -3.622580
lhand 1.271660 -9.079900
lfingers 3.562510
lthumb 14.012050 4.883805
rfemur 3.591440 0.582650 8.604000
rtibia 19.623449
rfoot 5.151300 -1.595175
rtoes -4.617070
lfemur -17.339001 4.489210 -10.422000
ltibia 18.584150
lfoot -4.024360 3.288120
ltoes -1.464300
57
root 8.866310 16.085100 -28.324699 6.149030 -11.877700 -0.948465
lowerback -2.930455 0.432179 -0.678470
upperback -1.221965 0.592330 1.342950
thorax 0.341477 0.304923 1.802315
lowerneck -11.248350 -2.148440 -5.997100
upperneck 8.976900 -2.553395 6.742250
head 5.057250 -0.828705 3.029815
rclavicle -0.000000 -0.000000
rhumerus -21.788099 7.599250 -46.464600
rradius 19.791401
rwrist -10.223750
rhand -14.103050 -12.659750
rfingers 3.562510
rthumb -0.792485 -27.646700
lclavicle -0.000000 -0.000000
lhumerus -21.179001 -1.105975 43.831699
lradius 9.644700
lwrist -3.558170
lhand 1.148280 -9.148450
lfingers 3.562510
lthumb 13.894100 4.834425
rfemur 2.897935 0.461720 8.294000
rtibia 20.885651
rfoot 5.626000 -1.861365
rtoes -4.099940
lfemur -16.863649 4.553230 -10.702350
ltibia 18.349251
lfoot -4.235530 3.329795
ltoes -1.487635
58
root 8.902580 16.117599 -28.177900 5.895110 -12.248600 -0.507219
lowerback -2.924185 0.438531 -0.810530
upperback -1.143215 0.607685 1.297385
thorax 0.416072 0.311181 1.831535
lowerneck -11.508750 -2.143575 -6.025900
upperneck 9.185150 -2.514535 6.689900
head 5.172100 -0.809960 3.031510
rclavicle 0.000000 0.000000
rhumerus -21.743750 7.491900 -46.291649
rradius 19.596350
rwrist -9.999550
rhand -13.917100 -12.160100
rfingers 3.562510
rthumb -0.612910 -27.148199
lclavicle 0.000000 0.000000
lhumerus -20.933300 -1.253090 43.898499
lradius 9.755300
lwrist -3.206185
lhand 1.258280 -8.827850
lfingers 3.562510
lthumb 13.999250 5.137950
rfemur 2.282550 0.367038 7.954300
rtibia 22.083500
rfoot 6.063350 -2.531610
rtoes -3.229375
lfemur -16.304600 4.579005 -10.999250
ltibia 18.096001
lfoot -4.483075 3.426330
ltoes -1.467760
59
root 8.934650 16.145700 -28.047001 5.681340 -12.394900 -0.352402
lowerback -2.789160 0.493138 -0.785350
upperback -1.136895 0.679035 1.271390
thorax 0.343369 0.347697 1.791580
lowerneck -11.388900 -2.207905 -6.230450
upperneck 9.069850 -2.571560 6.831900
head 5.128050 -0.839125 3.106255
rclavicle 0.000000 -0.000000
rhumerus -21.738400 7.328600 -46.120201
rradius 19.436300
rwrist -9.941250
rhand -14.243650 -12.424150
rfingers 3.562510
rthumb -0.928285 -27.410000
lclavicle 0.000000 -0.000000
lhumerus -20.823250 -1.670325 44.087299
lradius 9.923550
lwrist -2.911170
lhand 1.297470 -8.675350
lfingers 3.562510
lthumb 14.036700 5.284350
rfemur 1.687855 0.294129 7.866950
rtibia 23.228050
rfoot 6.235800 -3.518000
rtoes -2.466050
lfemur -15.797000 4.522410 -11.114600
ltibia 17.838900
lfoot -4.651005 3.466605
ltoes -1.302125
60
root 8.965780 16.173700 -27.932899 5.644180 -12.297400 -0.219952
lowerback -2.693630 0.499775 -0.789190
upperback -1.155835 0.688185 1.262010
thorax 0.270177 0.353570 1.782010
lowerneck -11.202600 -2.222625 -6.314900
upperneck 8.868500 -2.575410 6.872600
head 5.026850 -0.848715 3.126090
rclavicle 0.000000 0.000000
rhumerus -21.709400 7.120550 -45.935699
rradius 19.313450
rwrist -9.942900
rhand -14.626900 -12.660850
rfingers 3.562510
rthumb -1.298430 -27.642799
lclavicle 0.000000 0.000000
lhumerus -20.695351 -2.058935 44.267250
lradius 10.071100
lwrist -2.610515
lhand 1.328875 -8.686450
lfingers 3.562510
lthumb 14.066750 5.268250
rfemur 0.997975 0.140006 7.845350
rtibia 24.322901
rfoot 6.085200 -4.130270
rtoes -2.293290
lfemur -15.429600 4.390675 -11.241000
ltibia 17.581150
lfoot -4.759600 3.501575
ltoes -1.424185
